<?xml version="1.0" encoding="UTF-8" standalone="no"?>
<!DOCTYPE svg PUBLIC "-//W3C//DTD SVG 1.1//EN" "http://www.w3.org/Graphics/SVG/1.1/DTD/svg11.dtd">
<svg width="64" height="54" viewBox="0 0 795 690" version="1.1" xmlns="http://www.w3.org/2000/svg" xmlns:xlink="http://www.w3.org/1999/xlink" xml:space="preserve" style="fill-rule:evenodd;clip-rule:evenodd;stroke-linejoin:round;stroke-miterlimit:2;">
    <g transform="matrix(1,0,0,1,-446.201889,-718.323666)">
        <g transform="matrix(1,0,0,1,0,-3)">
            <path d="M917.353,739.968L917.353,1046.107L1043.003,1046.107C1071.83,1046.107 1142.015,1045.812 1142.015,1045.812L1141.866,1168.983L1133.044,1168.983C1132.705,1142.191 1130.793,1100.977 1115.786,1082.201C1100.779,1063.426 1066.064,1056.329 1043.003,1056.329L917.353,1056.329L917.353,1289.037C917.353,1323.968 919.558,1347.029 923.966,1358.221C927.358,1366.699 934.48,1373.991 945.332,1380.095C960.254,1388.235 975.854,1392.304 992.133,1392.304L1017.059,1392.304L1017.059,1411.126L446.202,1411.126L446.202,1392.304L745.411,1392.304C773.899,1392.304 794.586,1383.995 807.473,1367.378C815.612,1356.525 819.682,1330.412 819.682,1289.037L819.682,843.413C819.682,808.482 817.478,785.42 813.069,774.229C809.678,765.75 802.725,758.459 792.212,752.355C777.629,744.215 762.029,740.146 745.411,740.146L710.746,740.146L710.746,721.324L1234.276,721.324L1240.889,872.917L1223.084,872.917C1214.267,840.7 1217.912,784.986 1192.308,762.827C1166.703,740.669 1105.404,739.968 1069.456,739.968L917.353,739.968Z" style="fill-rule:nonzero;"/>
        </g>
        <g transform="matrix(1.414707,0,0,1.414707,-185.042838,-552.550791)">
            <path d="M598.982,1367.189L457.171,1367.189C449.985,1354.743 446.202,1340.624 446.202,1326.252C446.202,1281.064 482.889,1244.377 528.076,1244.377C573.264,1244.377 609.951,1281.064 609.951,1326.252C609.951,1340.624 606.167,1354.743 598.982,1367.189Z"/>
        </g>
    </g>
</svg>