<svg t="1769752114741" class="icon" viewBox="0 0 1024 1024" version="1.1" xmlns="http://www.w3.org/2000/svg" p-id="1656" width="200" height="200"><path d="M451.6 798.7c-30.1 30.1-70.2 46.6-113.1 46.6s-83.1-16.6-113.1-46.6c-30.1-30.1-46.6-70.2-46.6-113.1s16.6-83.1 46.6-113.1L330 467.7l-45.3-45.3L180 527.2c-42.2 42.2-65.4 98.4-65.4 158.4S137.9 801.8 180 844s98.4 65.4 158.4 65.4 116.2-23.2 158.4-65.4l104.7-104.7-45.2-45.3-104.7 104.7zM573.4 224.3c30.1-30.1 70.2-46.6 113.1-46.6s83.1 16.6 113.1 46.6c30.1 30.1 46.6 70.2 46.6 113.1s-16.6 83.1-46.6 113.1L692 558.3l45.3 45.3L845 495.8c42.2-42.2 65.4-98.4 65.4-158.4S887.2 221.2 845 179s-98.4-65.4-158.4-65.4-116.3 23.3-158.4 65.4L420.5 286.7l45.3 45.3 107.6-107.7zM251.4 298.6c6.2 6.2 14.4 9.4 22.6 9.4s16.4-3.1 22.6-9.4c12.5-12.5 12.5-32.8 0-45.3L168.1 124.9c-12.5-12.5-32.8-12.5-45.3 0s-12.5 32.8 0 45.3l128.6 128.4zM207.6 403.6c12.1 0 23.6-6.8 29-18.5 7.5-16 0.5-35.1-15.5-42.5l-102.5-47.8c-16-7.5-35.1-0.5-42.5 15.5-7.5 16-0.5 35.1 15.5 42.5l102.5 47.8c4.4 2.1 9 3 13.5 3zM340.1 222.4c5.4 11.6 17 18.5 29 18.5 4.5 0 9.1-1 13.5-3 16-7.5 22.9-26.5 15.5-42.5L350.3 92.8c-7.5-16-26.5-22.9-42.5-15.5-16 7.5-22.9 26.5-15.5 42.5l47.8 102.6zM772.6 725.4c-12.5-12.5-32.8-12.5-45.3 0s-12.5 32.8 0 45.3l128.5 128.5c6.2 6.2 14.4 9.4 22.6 9.4s16.4-3.1 22.6-9.4c12.5-12.5 12.5-32.8 0-45.3L772.6 725.4zM932.4 671.2l-102.5-47.8c-16-7.5-35.1-0.5-42.5 15.5-7.5 16-0.5 35.1 15.5 42.5l102.5 47.8c4.4 2 9 3 13.5 3 12.1 0 23.6-6.8 29-18.5 7.5-16 0.6-35-15.5-42.5zM683.9 801.6c-7.5-16-26.5-22.9-42.5-15.5-16 7.5-22.9 26.5-15.5 42.5l47.8 102.5c5.4 11.6 17 18.5 29 18.5 4.5 0 9.1-1 13.5-3 16-7.5 22.9-26.5 15.5-42.5l-47.8-102.5z" p-id="1657"></path><path d="M297.4 681.4c-12.5 12.5-12.5 32.8 0 45.3 6.2 6.2 14.4 9.4 22.6 9.4s16.4-3.1 22.6-9.4l123.1-123.1-45.3-45.3-123 123.1zM724.6 299.4c-12.5-12.5-32.8-12.5-45.3 0l-123 123.1 45.3 45.3 123.1-123.1c12.4-12.6 12.4-32.8-0.1-45.3z" p-id="1658"></path></svg>