<svg t="1769734717293" class="icon" viewBox="0 0 1024 1024" version="1.1" xmlns="http://www.w3.org/2000/svg" p-id="5842" width="200" height="200"><path d="M1010.656 499.584l-42.464-26.272a504.96 504.96 0 0 0-1.44-14.976l0.224 2.592 36.48-34.016a14.688 14.688 0 0 0-4.768-24.32l-0.096-0.032-46.624-17.44a294.848 294.848 0 0 0-4.384-14.56l0.736 2.528 29.088-40.416a14.624 14.624 0 0 0-9.44-22.944h-0.096L918.72 301.76a304.416 304.416 0 0 0-6.944-13.024l1.024 1.952 20.64-45.344a14.688 14.688 0 0 0-13.824-20.672l-49.92 1.76a304.064 304.064 0 0 0-8.192-9.92l0.288 0.352 11.488-48.608a14.624 14.624 0 0 0-17.664-17.536l0.096-0.032-48.608 11.488a531.52 531.52 0 0 0-8.48-7.04l-1.12-0.864 1.76-49.92v-0.704a14.496 14.496 0 0 0-20.736-13.088l0.096-0.032-45.344 20.704a524.544 524.544 0 0 0-11.04-5.92l-8.032-49.184a14.72 14.72 0 0 0-23.008-9.504l0.032-0.032-40.448 29.088a157.12 157.12 0 0 0-9.504-3.008l-2.528-0.64-17.44-46.624a14.72 14.72 0 0 0-24.352-4.864l-34.016 36.512a267.2 267.2 0 0 0-10.944-1.088l-1.408-0.096-26.272-42.464a14.592 14.592 0 0 0-24.8-0.032l-0.032 0.064-26.272 42.464a772.8 772.8 0 0 0-12.384 1.184L426.784 20.576a14.56 14.56 0 0 0-24.32 4.768l-0.032 0.096-17.44 46.624c-4.064 1.152-8.032 2.4-12.032 3.616l-40.416-29.088a14.72 14.72 0 0 0-22.944 9.44v0.096l-8.032 49.184a304.416 304.416 0 0 0-13.024 6.944l1.952-1.024-45.344-20.704a14.592 14.592 0 0 0-20.672 13.28v0.576-0.032l1.76 49.92c-3.232 2.56-6.432 5.216-9.6 7.904l-48.608-11.488a14.624 14.624 0 0 0-17.536 17.664l-0.032-0.096 11.424 48.608a539.52 539.52 0 0 0-7.84 9.568l-49.92-1.76h-0.544a14.592 14.592 0 0 0-13.248 20.736l-0.032-0.096 20.704 45.344a193.824 193.824 0 0 0-4.928 8.928l-1.024 2.112-49.152 7.968a14.72 14.72 0 0 0-9.504 23.008l-0.032-0.032 29.088 40.416c-1.28 4-2.464 7.968-3.68 12.032l-46.624 17.44a14.72 14.72 0 0 0-4.864 24.352l36.48 34.016a261.44 261.44 0 0 0-1.088 10.944l-0.096 1.408-42.464 26.272a14.528 14.528 0 0 0-0.064 24.8l0.064 0.032 42.464 26.272c0.352 4.128 0.768 8.288 1.184 12.384l-36.48 34.048a14.56 14.56 0 0 0 4.768 24.32l0.096 0.032 46.624 17.44c1.152 4.064 2.4 8.064 3.68 12.032l-29.088 40.416a14.528 14.528 0 0 0 9.472 22.944h0.096l49.152 7.968c1.92 3.712 3.872 7.392 5.92 11.04l-20.704 45.344a14.592 14.592 0 0 0 13.28 20.672h0.576l49.856-1.76c2.592 3.232 5.216 6.432 7.904 9.6l-11.424 48.64a14.592 14.592 0 0 0 17.696 17.504l-0.096 0.032 48.608-11.424c3.168 2.688 6.368 5.28 9.6 7.84l-1.76 49.92v0.64a14.496 14.496 0 0 0 20.736 13.088l-0.096 0.032 45.344-20.64c3.68 2.048 7.328 4 11.04 5.92l8.032 49.152a14.72 14.72 0 0 0 22.976 9.536l-0.032 0.032 40.416-29.088c4 1.28 7.968 2.528 12.032 3.68l17.44 46.624a14.592 14.592 0 0 0 24.352 4.896l34.048-36.48c4.096 0.48 8.224 0.864 12.384 1.248l26.272 42.464a14.624 14.624 0 0 0 24.8 0.064l0.032-0.064 26.272-42.464c4.128-0.384 8.288-0.768 12.384-1.248l34.016 36.48a14.688 14.688 0 0 0 24.32-4.768l0.032-0.096 17.44-46.624c4.064-1.152 8.064-2.4 12.032-3.68l40.416 29.088a14.528 14.528 0 0 0 22.944-9.472v-0.096l8.032-49.152c3.712-1.92 7.392-3.936 11.04-5.92l45.344 20.64a14.624 14.624 0 0 0 20.64-13.312v-0.48 0.032l-1.76-49.92c3.232-2.56 6.432-5.152 9.568-7.84l48.608 11.424a14.624 14.624 0 0 0 17.568-17.632l0.032 0.096-11.424-48.64c2.656-3.168 5.28-6.368 7.84-9.6l49.92 1.76h0.704a14.496 14.496 0 0 0 13.088-20.736l0.032 0.096-20.64-45.344c2.016-3.68 4-7.328 5.92-11.04l49.152-7.968a14.72 14.72 0 0 0 9.504-23.008l0.032 0.032-29.088-40.416 3.68-12.032 46.624-17.44a14.624 14.624 0 0 0 4.864-24.352l-36.48-34.048c0.416-4.096 0.864-8.224 1.184-12.384l42.464-26.272a14.528 14.528 0 0 0 0.064-24.8l-0.064-0.032z m-284.128 352.128a30.08 30.08 0 1 1 12.8-58.784l-0.192-0.032a30.08 30.08 0 1 1-12.832 58.784l0.192 0.032z m-14.432-97.536a27.36 27.36 0 0 0-32.48 20.896l-0.032 0.192-15.072 70.304a367.904 367.904 0 0 1-152.544 32.864h-0.544c-56.32 0-109.696-12.64-157.44-35.264l2.24 0.96-15.072-70.304a27.36 27.36 0 0 0-32.704-21.024l0.192-0.032-62.08 13.312c-11.2-11.52-21.696-23.872-31.392-36.864l-0.704-0.992h302.08c3.424 0 5.728-0.608 5.728-3.712v-106.88c0-3.104-2.272-3.712-5.728-3.712h-88.352v-67.744h95.584c8.704 0 46.624 2.464 58.752 50.944 3.808 14.88 12.128 63.392 17.824 78.944 5.664 17.408 28.8 52.192 53.472 52.192h150.528a32.64 32.64 0 0 0 5.664-0.576l-0.192 0.032c-10.976 14.848-22.208 27.936-34.272 40.192l0.064-0.064-63.52-13.664zM294.272 850.272a30.08 30.08 0 0 1-12.8-58.784l0.192-0.032a30.08 30.08 0 0 1 12.8 58.784l-0.192 0.032zM179.68 385.536a30.08 30.08 0 0 1-54.88 24.608l-0.064-0.192a30.08 30.08 0 0 1 54.88-24.576l0.064 0.192z m-35.2 83.488l64.672-28.768a27.456 27.456 0 0 0 13.856-36.352l0.064 0.16-13.312-30.112h52.384v236.128H156.448a361.408 361.408 0 0 1-14.112-101.184c0-14.08 0.8-27.936 2.304-41.6l-0.16 1.664z m283.808-22.912v-69.6h124.768c6.432 0 45.472 7.456 45.472 36.64 0 24.224-29.952 32.928-54.56 32.928h-115.68z m453.376 62.656c0 9.216-0.352 18.4-1.024 27.424h-37.92c-3.808 0-5.344 2.464-5.344 6.24v17.408c0 40.992-23.136 49.92-43.392 52.192-19.296 2.176-40.672-8.064-43.296-19.872-11.392-64-30.336-77.696-60.288-101.28 37.152-23.584 75.808-58.4 75.808-104.992 0-50.304-34.528-82.016-58.016-97.568-32.992-21.76-69.504-26.112-79.36-26.112H236.608a369.088 369.088 0 0 1 204.48-116.352l2.336-0.384 46.24 48.512a27.2 27.2 0 0 0 38.72 0.896l51.712-49.504a371.136 371.136 0 0 1 252.096 178.432l0.96 1.792-35.424 80a27.52 27.52 0 0 0 13.76 36.128l0.16 0.064 68.192 30.304c1.184 12.128 1.792 24.32 1.792 36.736zM489.696 104.192A30.016 30.016 0 0 1 531.2 147.648a30.08 30.08 0 0 1-41.472-43.488z m351.424 282.784a29.92 29.92 0 0 1 39.584-15.264 30.08 30.08 0 1 1-39.552 15.136l-0.064 0.192z" fill="#ffffff" p-id="5843"></path></svg>
