<svg t="1769832881739" class="icon" viewBox="0 0 1024 1024" version="1.1" xmlns="http://www.w3.org/2000/svg" p-id="33728" width="200" height="200"><path d="M493.824 519.9a2028.684 2028.684 0 0 0-14.16 31.38c-17.62 39.928-37.136 88.508-44.264 119.632-2.56 11.088-4.148 24.824-4.12 40.056 0 6.024 0.324 12.356 0.84 18.804a232.428 232.428 0 0 0 79.92 14.24 232.836 232.836 0 0 0 73.16-11.924c-5.408-4.944-10.568-10.216-15.264-16.152-31.184-39.764-48.584-98.044-76.112-196.036M378.688 322.344c-59.56 41.972-98.532 111.2-98.68 189.652 0.148 77.28 37.948 145.616 96.008 187.764 14.24-59.32 49.94-113.64 103.472-222.52-3.176-8.732-6.8-18.292-10.856-28.336-14.828-37.2-36.232-80.4-55.336-99.968-9.736-10.22-21.556-19.052-34.608-26.592" fill="#64DD17" p-id="33729"></path><path d="M714.128 778.14c-30.728-3.852-56.092-8.5-78.28-16.324a277.628 277.628 0 0 1-123.832 28.992c-153.96 0-278.772-124.788-278.792-278.8 0-83.56 36.816-158.472 95.056-209.564-15.576-3.76-31.824-5.96-48.416-5.928-81.8 0.768-168.148 46.04-204.1 168.3-3.36 17.796-2.56 31.252-2.56 47.2 0 242.36 196.48 438.86 438.82 438.86 148.42 0 279.528-73.748 358.928-186.536-42.944 10.704-84.24 15.82-119.608 15.932-13.256 0-25.7-0.712-37.22-2.12" fill="#7CB342" p-id="33730"></path><path d="M631.688 693.08c2.712 1.348 8.852 3.54 17.4 5.96 57.5-42.208 94.868-110.204 95.016-187.052h-0.02c-0.216-128.12-103.896-231.784-232.044-232.04a232.6 232.6 0 0 0-72.852 11.848c47.116 53.704 69.772 130.448 91.688 214.4l0.04 0.1c0.04 0.068 7.008 23.312 18.972 54.152 11.88 30.8 28.812 68.92 47.272 96.708 12.12 18.62 25.452 32 34.528 35.928" fill="#29B6F6" p-id="33731"></path><path d="M512.036 73.156c-146.984 0-277 72.36-356.64 183.304 41.448-25.96 83.764-35.32 120.696-34.984 51.012 0.148 91.116 15.96 110.36 26.784 4.644 2.68 9.056 5.56 13.376 8.52a277.64 277.64 0 0 1 112.2-23.576c153.98 0.02 278.808 124.812 278.832 278.792h-0.024c0 77.64-31.752 147.832-82.94 198.38 12.56 1.408 25.96 2.28 39.648 2.216 48.6 0.02 101.132-10.704 140.512-43.828 25.68-21.632 47.196-53.304 59.128-100.792 2.332-18.344 3.676-36.992 3.676-55.968 0-242.348-196.464-438.856-438.82-438.856" fill="#1E88E5" p-id="33732"></path></svg>
