<?xml version="1.0" encoding="UTF-8" standalone="no"?>
<!DOCTYPE svg PUBLIC "-//W3C//DTD SVG 1.1//EN" "http://www.w3.org/Graphics/SVG/1.1/DTD/svg11.dtd">
<svg width="100%" height="100%" viewBox="0 0 176 198" version="1.1" xmlns="http://www.w3.org/2000/svg" xmlns:xlink="http://www.w3.org/1999/xlink" xml:space="preserve" xmlns:serif="http://www.serif.com/" style="fill-rule:evenodd;clip-rule:evenodd;stroke-linejoin:round;stroke-miterlimit:2;">
    <g transform="matrix(1,0,0,1,-11.062961,0)">
        <g transform="matrix(1,0,0,1,-1.19722,-1.267959)">
            <g id="cpp">
                <g transform="matrix(0.24536,0,0,0.24536,-25.427122,-23.872445)">
                    <path d="M861.03,303.309L161.792,705.843C156.992,696.621 154.447,686.39 154.368,675.994L153.6,337.306C153.6,314.266 165.888,292.762 185.856,281.242L478.72,111.206C498.688,99.686 523.469,99.482 543.386,111.002L837.12,279.859C847.309,285.491 855.296,293.683 860.979,303.309L861.03,303.309Z" style="fill:rgb(76,142,192);fill-rule:nonzero;"/>
                </g>
                <g transform="matrix(0.24536,0,0,0.24536,-25.427122,-23.872445)">
                    <path d="M860.672,708.966C855.109,717.982 847.359,725.449 838.144,730.675L545.024,900.659C525.056,912.23 500.48,912.435 480.358,900.864L186.829,732.058C175.934,725.801 167.105,716.491 161.434,705.28L510.259,505.754L860.621,709.018L860.672,708.966Z" style="fill:rgb(0,70,120);fill-rule:nonzero;"/>
                </g>
                <g transform="matrix(0.24536,0,0,0.24536,-25.427122,-23.872445)">
                    <path d="M511.232,267.162C509.582,267.127 507.931,267.11 506.281,267.11C374.944,267.11 266.87,375.185 266.87,506.522C266.87,637.859 374.944,745.933 506.281,745.933C507.931,745.933 509.582,745.916 511.232,745.882C640.672,743.204 745.692,635.99 745.692,506.522C745.692,377.054 640.672,269.839 511.232,267.162ZM511.232,626.739C511.198,626.739 511.164,626.739 511.13,626.739C445.236,626.739 391.014,572.517 391.014,506.624C391.014,506.59 391.014,506.556 391.014,506.522C391.014,506.505 391.014,506.487 391.014,506.47C391.014,440.577 445.236,386.355 511.13,386.355C511.164,386.355 511.198,386.355 511.232,386.355C511.249,386.355 511.266,386.355 511.283,386.355C577.176,386.355 631.398,440.577 631.398,506.47C631.398,506.487 631.398,506.505 631.398,506.522C631.398,506.556 631.398,506.59 631.398,506.624C631.398,572.517 577.176,626.739 511.283,626.739C511.266,626.739 511.249,626.739 511.232,626.739Z" style="fill:white;fill-rule:nonzero;"/>
                </g>
                <g transform="matrix(0.24536,0,0,0.24536,-25.427122,-23.872445)">
                    <path d="M870.4,674.611C870.4,686.899 866.867,698.829 860.672,708.966L509.235,506.522L861.338,303.872C866.816,313.446 869.734,324.198 869.734,335.514L870.4,674.611Z" style="fill:rgb(0,90,146);fill-rule:nonzero;"/>
                </g>
                <g transform="matrix(0.24536,0,0,0.24536,-25.427122,-23.872445)">
                    <path d="M750.592,491.878L750.592,519.219L723.251,519.219L723.251,546.611L695.91,546.611L695.91,519.219L668.518,519.219L668.518,491.878L695.91,491.878L695.91,464.538L723.251,464.538L723.251,491.878L750.592,491.878ZM851.251,492.851L851.251,520.192L823.91,520.192L823.91,547.584L796.518,547.584L796.518,520.192L769.178,520.192L769.178,492.851L796.518,492.851L796.518,465.51L823.91,465.51L823.91,492.851L851.251,492.851Z" style="fill:white;fill-rule:nonzero;"/>
                </g>
            </g>
        </g>
    </g>
</svg>
