<svg t="1769833746330" class="icon" viewBox="0 0 1024 1024" version="1.1" xmlns="http://www.w3.org/2000/svg" p-id="2982" width="200" height="200"><path d="M913.408 208.384h-163.328v101.376h163.328zM913.408 595.456h-163.328v101.376h163.328zM750.08 337.408h163.328v101.376h-163.328zM750.08 719.872h163.328v101.376h-163.328z" fill="#377F52" p-id="2983"></path><path d="M988.672 107.008h-392.704c-4.608 0-9.216 1.024-13.312 2.56V0L0 116.224v792.064L582.656 1024v-103.936c4.096 1.536 8.704 2.56 13.312 2.56h392.704c19.456 0 35.328-16.384 35.328-36.864V143.872c0-20.48-15.872-36.864-35.328-36.864z m-898.048 460.8c5.12 11.776 12.8 17.408 22.528 17.92 15.872 0.512 25.088-15.36 28.672-48.128l36.864 4.096c-2.56 31.744-9.728 55.296-21.504 71.168-11.776 15.872-26.624 23.04-44.032 22.016-21.504-1.024-38.912-13.312-52.224-37.376C47.616 573.952 40.96 542.208 40.96 501.76c0-37.888 6.656-69.12 19.456-93.696 12.8-25.088 30.72-37.888 52.736-38.912 38.912-1.536 60.416 31.232 65.536 99.328l-39.424 4.608c-1.024-36.864-9.728-54.784-26.624-54.272-19.968 0.512-29.696 28.672-29.696 83.968 0 31.744 2.56 53.248 7.68 65.024z m243.2 50.688c-11.264 17.92-27.648 26.112-49.664 25.088-16.384-1.024-30.72-7.68-41.984-20.992-11.776-12.8-19.456-31.744-23.04-56.32l34.816-12.288c4.096 25.6 14.848 38.4 32.768 38.912 8.704 0.512 14.848-2.56 19.456-8.192 4.096-5.632 6.144-12.288 6.144-20.48s-2.048-14.336-5.632-18.944c-4.096-4.608-11.264-8.704-22.528-12.8-20.48-7.168-35.328-17.408-44.032-29.696-8.704-12.288-13.312-30.208-13.312-53.76 0-24.064 5.12-44.032 15.872-60.928 10.24-16.896 24.576-25.6 42.496-26.624 31.744-1.536 52.224 19.456 60.928 62.976l-32.256 18.944c-4.096-21.504-13.312-32.256-27.648-31.744-14.848 0.512-22.528 8.704-22.528 25.088 0 6.656 1.536 11.776 4.096 16.384 2.56 4.608 9.216 8.192 18.944 11.776 16.384 5.632 28.672 11.264 36.352 16.896 7.68 5.632 13.824 15.36 19.456 28.16 5.12 12.8 7.68 27.648 7.68 43.52 0.512 25.088-5.12 47.104-16.384 65.024z m152.576 30.208l-48.128-2.048-48.64-285.696 40.448-1.536 32.256 205.824 33.792-208.896 38.912-1.536-48.64 293.888z m493.568 227.84h-397.312v-55.296h132.608v-101.376h-132.608v-23.04h132.608v-101.376h-132.608v-27.648h132.608V466.432h-132.608v-27.648h132.608V337.408h-132.608v-27.648h132.608V208.384h-132.608V153.088h397.312v723.456z" fill="#377F52" p-id="2984"></path><path d="M750.08 466.432h163.328v101.376h-163.328z" fill="#377F52" p-id="2985"></path></svg>
