<svg t="1769833157266" class="icon" viewBox="0 0 1024 1024" version="1.1" xmlns="http://www.w3.org/2000/svg" p-id="42436" width="200" height="200"><path d="M922.624 0c55.04 0 99.84 44.8 99.84 99.84v824.32c0 55.04-44.8 99.84-99.84 99.84H101.504c-55.04 0-99.84-44.8-99.84-99.84V99.84C1.664 44.8 46.464 0 101.504 0zM577.408 257.408h-53.76l-78.72 509.44h53.76l78.72-509.44z m-149.376 59.392l-248.32 160.64v57.6l248.32 148.48V602.24l-177.28-97.28 177.28-103.04V316.8z m168 0v85.12l177.28 103.04-177.28 97.28v81.28l248.32-148.48v-57.6l-248.32-160.64z" fill="#2c2c2c" p-id="42437"></path></svg>
