<svg t="1769832918687" class="icon" viewBox="0 0 1165 1024" version="1.1" xmlns="http://www.w3.org/2000/svg" p-id="34727" width="200" height="200"><path d="M0 0h1165.084444v1024H0z" fill="#FFFFFF" p-id="34728"></path><path d="M201.796267 726.6304c-85.574542-90.68544-135.645867-215.959324-135.518436-365.431467-0.118329-132.187022 41.415111-245.805511 112.822045-332.26752l-0.118329 0.045511H28.899556v697.662578h172.787484l0.104676-0.013653z m790.391466 0.054613c36.864-39.48544 69.895964-85.984142 99.828623-139.163875l-166.115556-83.057778c-58.336142 94.845156-143.64672 182.144569-261.620622 182.727111-171.699769-0.582542-239.160889-147.401387-238.787698-336.372622H1067.099022c0.855609-21.34016 0.855609-31.257031 0-41.528889 4.187022-112.426098-25.609102-206.92992-79.812835-280.521387l-0.277618 0.209351h144.456818v697.667129h-139.59168l0.314026 0.04096z" fill="#A90533" p-id="34729"></path><path d="M435.878116 188.857458c7.099733-85.560889 74.560853-143.100587 153.654613-143.268978 79.630791 0.168391 137.170489 57.708089 139.118364 143.268978h-292.772977z" fill="#A90533" p-id="34730"></path><path d="M120.267662 844.995698v-29.063396H30.983964v172.336925h89.283698v-29.072498H64.207076v-45.674951h53.980728v-29.067947H64.207076v-39.458133h56.060586z m151.574756 70.596835c22.259484-3.304107 34.479218-25.358791 35.298418-47.754809-0.8192-36.636444-24.566898-51.800747-58.135894-51.909973H203.32544v172.341476h33.223111v-68.521529l41.524338 68.521529h41.528889L271.837867 915.592533z m-35.298418-72.667591h4.150613c18.127076 0.682667 31.730347 4.815076 31.147805 26.988089 0.582542 20.325262-12.561067 25.836658-31.147805 24.921885h-4.150613v-51.909974z m186.873173-26.99264h-33.223111v172.336925h80.982471v-29.072498H423.417173v-143.268978z m218.020978 137.038507l14.536249 35.298418h35.298418l-64.370916-176.492089h-26.988089l-68.52608 176.492089h35.298418l14.536249-35.298418h60.215751z m-8.305778-26.988089h-41.528889l18.686863-64.370916 22.846577 64.366365z m120.436054 62.291058h35.293866V871.992889l91.363556 120.426951h24.912782v-176.492089h-35.293867v116.280889l-91.363555-120.431502h-24.912782v176.492089z m296.91904-91.368107v26.99264h37.378275c-0.77824 21.695147-18.532124 40.072533-39.453582 39.453582-33.036516 0.618951-49.406862-31.311644-49.834667-60.215751 0.427804-28.521813 16.566044-61.831396 49.834667-62.291058 17.458062 0.455111 32.221867 12.401778 39.453582 26.99264l29.067947-14.536248c-12.784071-26.928924-38.607076-41.86112-68.521529-41.524338-51.48672-0.332231-84.454969 42.161493-85.128533 91.359004 0.673564 47.968711 32.722489 90.699093 83.053226 91.363556 54.35392-0.664462 79.489707-44.082062 78.902614-93.438862v-4.155165H1050.487467z" p-id="34731"></path></svg>
