<?xml version="1.0" encoding="UTF-8" standalone="no"?>
<!DOCTYPE svg PUBLIC "-//W3C//DTD SVG 1.1//EN" "http://www.w3.org/Graphics/SVG/1.1/DTD/svg11.dtd">
<svg width="100%" height="100%" viewBox="0 0 198 75" version="1.1" xmlns="http://www.w3.org/2000/svg" xmlns:xlink="http://www.w3.org/1999/xlink" xml:space="preserve" xmlns:serif="http://www.serif.com/" style="fill-rule:evenodd;clip-rule:evenodd;stroke-linejoin:round;stroke-miterlimit:2;">
    <g transform="matrix(1,0,0,1,0,-61.580175)">
        <g transform="matrix(1,0,0,1,-1.19722,-1.267959)">
            <g id="go" transform="matrix(0.154687,0,0,0.154687,1.197221,23.368046)">
                <path d="M800.2,389.6C778.4,395.2 760.4,398.2 742,404.8C727.4,408.6 712.6,412.6 695.6,417L694.4,417.2C686,419.6 685.2,419.8 677.4,410.8C668,400.2 661.2,393.4 648.2,387C608.8,367.8 570.8,373.4 535.4,396.4C493,423.8 471.2,464.4 471.8,514.8C472.4,564.8 506.6,605.8 554.2,612.6C598.2,618.2 633.8,603.4 661.8,571.6C666,566.4 669.8,561 674,555C675.6,553 677,550.8 678.6,548.4L558.4,548.4C545.4,548.4 542.2,540.4 546.6,529.8C554.6,510.4 569.6,478 578.4,461.8C580.2,458.2 584.6,450.2 592.2,450.2L794.4,450.2C803.4,423.4 818,396.4 837.6,370.8C883,311 936.2,279.8 1012,266.8C1075.6,255.6 1135.4,261.8 1189.8,298.6C1239,332.2 1269.4,377.8 1277.6,437.6C1288.2,521.8 1263.8,590.2 1204.2,648.8C1164.8,690.6 1114.4,716.8 1056.4,728.6C1045.2,730.6 1034.2,731.6 1023.4,732.6C1017.6,733 1012,733.6 1006.4,734.2C949.8,733 898,716.8 854.4,679.4C823.8,652.8 802.6,620.2 792.2,582.4C784.8,597 776.2,611.2 764.2,624.6C721,683.8 662.4,720.6 588.4,730.4C527.2,738.6 470.6,726.8 420.6,689.4C374.6,654.4 348.4,608.4 341.6,551C333.4,483 353.4,420.2 394.4,368.4C438.8,310.4 497.4,273.6 569,260.6C627.6,248.2 683.6,256.8 734.2,291.2C767.2,313 790.8,342.8 806.4,379C810.2,384.6 807.6,387.8 800.2,389.6ZM96.6,400.8C94.1,400.8 93.48,399.6 94.72,397.6L107.82,380.8C109.06,379 112.18,377.8 114.68,377.8L337.2,377.8C339.6,377.8 340.2,379.6 339,381.4L328.4,397.6C327.2,399.6 324,401.4 322.2,401.4L96.6,400.8ZM2.492,458.2C0,458.2 -0.624,456.8 0.624,455L13.71,438.2C14.958,436.4 18.074,435 20.56,435L304.8,435C307.2,435 308.4,437 307.8,438.8L302.8,453.8C302.2,456.2 299.8,457.6 297.2,457.6L2.492,458.2ZM151.44,511.8C150.2,513.6 150.82,515.4 153.3,515.4L289.2,516C291,516 293.6,514.2 293.6,511.8L294.8,496.8C294.8,494.2 293.6,492.4 291,492.4L166.4,492.4C163.9,492.4 161.42,494.2 160.16,496.2L151.44,511.8ZM1154.4,475.8C1154,470.6 1153.8,466.2 1153,461.8C1141.8,400.2 1085,365.2 1025.8,379C967.8,392 930.4,428.8 916.8,487.4C905.6,536 929.2,585.2 974,605.2C1008.4,620.2 1042.6,618.4 1075.6,601.4C1124.8,574.2 1151.6,536 1154.8,482.4C1154.6,480 1154.6,477.8 1154.4,475.8Z" style="fill-rule:nonzero;"/>
            </g>
        </g>
    </g>
</svg>
