<svg t="1769833193657" class="icon" viewBox="0 0 1024 1024" version="1.1" xmlns="http://www.w3.org/2000/svg" p-id="42761" width="200" height="200"><path d="M0 0m128 0l768 0q128 0 128 128l0 768q0 128-128 128l-768 0q-128 0-128-128l0-768q0-128 128-128Z" fill="#FFCD11" p-id="42762"></path><path d="M187.136 257.216c-25.216 0-44.416 7.68-57.6 24.128-12.032 14.784-18.048 34.56-18.048 59.712v99.84c0 15.36-3.264 26.88-9.856 34.496-7.68 7.68-21.376 12.608-40.576 14.272v47.104c19.2 1.088 32.896 6.08 40.576 14.848 6.592 6.528 9.856 18.048 9.856 33.92v100.352c0 24.704 6.016 44.416 18.112 59.2 13.12 15.936 32.32 24.128 57.6 24.128H230.4v-47.68h-32.32c-19.776 0-29.632-11.52-29.632-33.472V582.272c0-32.896-15.872-55.872-47.68-69.056 31.808-11.52 47.68-34.56 47.68-69.12V338.944c0-23.04 9.856-33.92 29.632-33.92H230.4v-47.744h-43.328zM298.88 500.48a42.112 42.112 0 0 0-31.104 12.16 38.976 38.976 0 0 0-13.248 31.04c0 12.736 4.032 23.04 13.248 31.168a42.56 42.56 0 0 0 31.104 12.672 46.72 46.72 0 0 0 32.256-12.16 43.904 43.904 0 0 0 12.672-31.616 42.56 42.56 0 0 0-12.672-31.168 45.76 45.76 0 0 0-32.256-12.096z m192 0a42.112 42.112 0 0 0-31.104 12.16 38.976 38.976 0 0 0-13.248 31.04c0 12.736 4.032 23.04 13.248 31.168a42.56 42.56 0 0 0 31.104 12.672 46.72 46.72 0 0 0 32.256-12.16 43.904 43.904 0 0 0 12.672-31.616 42.56 42.56 0 0 0-12.672-31.168 45.76 45.76 0 0 0-32.256-12.096z m192 0a44.416 44.416 0 0 0-31.68 12.16 40.384 40.384 0 0 0-12.672 31.04c0 12.736 4.032 23.04 12.672 31.168a44.864 44.864 0 0 0 31.68 12.672c12.672 0 23.04-4.032 31.68-12.16a42.112 42.112 0 0 0 13.248-31.616 42.56 42.56 0 0 0-12.672-31.168 45.76 45.76 0 0 0-32.256-12.096zM791.808 257.216v47.68h32.32c19.712 0 29.632 10.944 29.632 33.984V444.16c0 34.56 15.872 57.6 47.68 69.056-31.808 13.184-47.68 36.16-47.68 69.12v105.728c0 21.952-9.92 33.472-29.632 33.472h-32.32v47.68h43.264c24.704 0 43.904-8.192 57.6-24.128 12.032-14.784 18.048-34.56 18.048-59.2V585.6c0-15.936 3.328-27.456 9.92-33.984 7.68-8.768 20.8-13.76 40.512-14.848v-47.104c-19.712-1.664-32.832-6.08-40-13.696-7.104-7.68-10.432-19.776-10.432-35.136V341.12c0-25.216-6.016-44.928-18.048-59.712-13.696-16.448-32.896-24.128-57.6-24.128h-43.264z" fill="#FFFFFF" p-id="42763"></path></svg>
