<?xml version="1.0" encoding="UTF-8" standalone="no"?>
<!DOCTYPE svg PUBLIC "-//W3C//DTD SVG 1.1//EN" "http://www.w3.org/Graphics/SVG/1.1/DTD/svg11.dtd">
<svg width="100%" height="100%" viewBox="0 0 135 198" version="1.1" xmlns="http://www.w3.org/2000/svg" xmlns:xlink="http://www.w3.org/1999/xlink" xml:space="preserve" xmlns:serif="http://www.serif.com/" style="fill-rule:evenodd;clip-rule:evenodd;stroke-linejoin:round;stroke-miterlimit:2;">
    <g transform="matrix(1,0,0,1,-31.709302,-0.139757)">
        <g transform="matrix(1,0,0,1,-1.19722,-1.267959)">
            <g id="lisp" transform="matrix(0.204397,0,0,0.204397,-4.349292,-4.243446)">
                <path d="M817.152,790.528L840.704,790.528C840.704,861.184 829.44,912.384 805.888,945.152C782.336,977.92 754.688,996.352 720.896,996.352C693.248,996.352 664.576,985.088 638.976,965.632C613.376,945.152 589.824,887.808 568.32,792.576L509.952,530.432L310.272,985.088L182.272,985.088L471.04,363.52C456.704,283.648 438.272,223.232 414.72,185.344C393.216,147.456 365.568,126.976 334.848,126.976C309.248,126.976 285.696,136.192 267.264,155.648C248.832,174.08 238.592,206.848 236.544,246.784L212.992,246.784C215.04,179.2 227.328,129.024 250.88,88.064C276.48,50.176 307.2,27.648 345.088,27.648C368.64,27.648 392.192,36.864 413.696,56.32C435.2,75.776 453.632,110.592 470.016,157.696C486.4,204.8 509.952,307.2 544.768,457.728L593.92,677.888C612.352,766.976 631.808,825.344 655.36,854.016C678.912,882.688 702.464,899.072 732.16,899.072C783.36,898.048 812.032,863.232 817.152,790.528Z" style="fill:rgb(128,203,196);fill-rule:nonzero;"/>
            </g>
        </g>
    </g>
</svg>
