<?xml version="1.0" encoding="UTF-8" standalone="no"?>
<!DOCTYPE svg PUBLIC "-//W3C//DTD SVG 1.1//EN" "http://www.w3.org/Graphics/SVG/1.1/DTD/svg11.dtd">
<svg width="100%" height="100%" viewBox="0 0 198 198" version="1.1" xmlns="http://www.w3.org/2000/svg" xmlns:xlink="http://www.w3.org/1999/xlink" xml:space="preserve" xmlns:serif="http://www.serif.com/" style="fill-rule:evenodd;clip-rule:evenodd;stroke-linejoin:round;stroke-miterlimit:2;">
    <g transform="matrix(1,0,0,1,0,-0.160776)">
        <g transform="matrix(1,0,0,1,-1.19722,-1.267959)">
            <g id="lua" transform="matrix(0.193202,0,0,0.193202,1.19722,1.428735)">
                <path d="M16.288,442.752L4.672,441.184C2.627,455.924 1.186,470.742 0.352,485.6L12.096,486.272C12.864,471.776 14.272,457.184 16.288,442.752ZM176.544,140.32L168.704,131.584C157.696,141.472 146.976,152.064 136.864,162.912L145.472,170.944C155.328,160.352 165.792,150.048 176.544,140.352L176.544,140.32ZM246.208,87.84L239.968,77.824C227.328,85.76 214.976,94.24 203.136,103.168L210.208,112.512C221.728,103.84 233.856,95.488 246.176,87.84L246.208,87.84ZM77.888,783.744C85.792,796.416 94.272,808.736 103.2,820.576L112.576,813.568C103.84,802.016 95.552,789.888 87.84,777.568L77.888,783.744ZM48.16,699.808L37.28,704.256C42.784,717.824 48.96,731.36 55.68,744.48L55.904,744.896L66.368,739.552L66.144,739.136C59.607,726.286 53.618,713.165 48.192,699.808L48.16,699.808ZM12.768,397.184L24.256,399.872C27.488,385.696 31.424,371.552 35.872,357.792L24.736,354.08C20.128,368.256 16.128,382.752 12.8,397.184L12.768,397.184ZM11.744,529.92L0,530.336C0.512,545.184 1.696,560.16 3.552,574.848L15.2,573.44C13.406,558.991 12.253,544.471 11.744,529.92ZM10.976,618.912C14.08,633.408 17.888,648 22.24,662.176L33.472,658.752C29.204,644.835 25.531,630.742 22.464,616.512L10.976,618.912ZM493.856,11.744L493.44,0C478.592,0.512 463.616,1.664 448.896,3.488L450.336,15.136C464.768,13.376 479.36,12.224 493.856,11.712L493.856,11.744ZM990.816,365.472C995.072,379.392 998.752,393.632 1001.728,407.808L1013.248,405.28C1010.166,390.701 1006.44,376.265 1002.08,362.016L990.816,365.472ZM751.904,59.264C738.724,52.276 725.239,45.88 711.488,40.096L706.912,50.848C720.32,56.512 733.568,62.848 746.432,69.568L751.904,59.264ZM669.632,24.416C655.456,19.936 641.056,15.936 626.528,12.608L623.84,24.032C638.016,27.264 652.16,31.2 665.984,35.68L669.632,24.416ZM284.832,65.92C297.536,59.52 310.688,53.504 323.904,48.096L319.456,37.248C305.92,42.656 292.48,48.864 279.488,55.52L278.848,55.872L284.192,66.272L284.832,65.92ZM1012.416,494.432L1024.16,494.016C1023.63,478.276 1022.381,462.569 1020.416,446.944L1020.672,449.44L1009.024,450.848C1010.784,465.28 1011.936,479.936 1012.448,494.464L1012.416,494.432ZM582.624,4.48C567.852,2.462 553.001,1.063 538.112,0.288L537.504,11.936C551.968,12.704 566.656,14.112 580.992,16.128L582.624,4.48ZM407.264,22.496L404.8,10.976C390.304,14.048 375.744,17.792 361.536,22.24L364.992,33.408C378.848,29.184 393.12,25.504 407.264,22.496ZM82.016,233.344L91.872,239.744C99.776,227.584 108.256,215.584 117.12,204.16L107.872,196.896C98.784,208.672 90.08,220.928 82.016,233.344ZM40.288,312.224L51.072,316.8C56.704,303.456 63.008,290.144 69.792,277.376L59.424,271.904C52.48,284.992 46.016,298.56 40.256,312.224L40.288,312.224ZM777.568,936.224L783.744,946.208C796.32,938.272 808.736,929.792 820.576,920.864L813.568,911.52C801.952,920.224 789.792,928.576 777.568,936.224ZM906.656,820L915.904,827.264C925.088,815.616 933.728,803.328 941.792,790.816L931.968,784.512C924.032,796.672 915.552,808.576 906.624,820L906.656,820ZM847.2,883.84L855.04,892.512C866.048,882.688 876.8,872.064 886.88,861.28L878.304,853.248C868.48,863.84 857.952,874.08 847.2,883.84ZM954.048,746.848L964.448,752.352C971.36,739.264 977.856,725.696 983.616,712.032L972.768,707.456C965.888,723.84 959.584,736.768 952.768,749.376L954.016,746.848L954.048,746.848ZM1007.712,581.504L1019.36,583.168C1021.44,568.416 1022.848,553.504 1023.712,538.656L1011.968,538.048C1011.2,552.48 1009.792,567.136 1007.712,581.472L1007.712,581.504ZM988.064,666.496L999.328,670.176C1003.904,656 1007.904,641.6 1011.232,627.072L999.808,624.384C996.512,638.592 992.608,652.768 988.064,666.496ZM958.048,284.672C964.608,297.6 970.72,311.008 976.128,324.448L987.04,320C981.426,306.184 975.223,292.614 968.448,279.328L958.048,284.672ZM354.016,999.168C368.128,1003.744 382.592,1007.744 397.056,1011.072L399.712,999.648C385.52,996.388 371.48,992.501 357.632,988L354.016,999.168ZM441.024,1019.264C455.744,1021.344 470.72,1022.752 485.536,1023.616L486.144,1011.872C471.595,1011.097 457.085,1009.698 442.656,1007.68L441.024,1019.264ZM739.296,957.824C726.368,964.384 713.152,970.496 699.776,975.904L704.224,986.816C717.792,981.216 731.488,975.072 744.64,968.288L744.8,968.192L739.552,957.696L739.296,957.824ZM196.896,915.936C208.576,925.024 220.864,933.76 233.344,941.76L239.712,931.936C227.514,924.02 215.653,915.596 204.16,906.688L196.896,915.936ZM529.856,1012.256L530.24,1024C545.088,1023.392 560.064,1022.24 574.816,1020.416L573.312,1008.864C558.976,1010.624 544.288,1011.776 529.824,1012.288L529.856,1012.256ZM271.84,964.448C284.928,971.36 298.496,977.856 312.192,983.616L316.768,972.768C303.36,967.106 290.206,960.86 277.344,954.048L271.84,964.448ZM131.616,855.072C141.568,866.08 152.096,876.832 162.944,886.912L170.976,878.336C160.316,868.433 150.108,858.055 140.384,847.232L131.616,855.072ZM616.384,1001.6L618.912,1013.12C633.408,1009.952 647.936,1006.208 662.176,1001.76L658.688,990.592C644.832,994.816 630.56,998.496 616.416,1001.6L616.384,1001.6ZM903.744,5.504C840.81,5.504 789.024,57.29 789.024,120.224C789.024,183.158 840.81,234.944 903.744,234.944C966.678,234.944 1018.464,183.158 1018.464,120.224C1018.464,57.29 966.678,5.504 903.744,5.504ZM653.888,659.072C653.888,679.168 667.296,687.232 690.24,687.232C718.816,687.232 745.568,670.336 745.568,643.872L745.568,616.352C735.744,620.928 729.408,622.368 698.336,626.592C666.976,631.232 653.888,639.648 653.888,659.072ZM512.064,120.224C295.744,120.224 120.384,295.552 120.384,511.904C120.384,728.128 295.744,903.584 512.064,903.584C728.384,903.584 903.744,728.192 903.744,511.904C903.744,295.584 728.384,120.224 512.064,120.224ZM405.952,707.744L246.304,707.744L246.304,450.752L279.104,450.752L279.104,678.848L405.984,678.848L405.952,707.744ZM582.176,707.744L555.776,707.744L555.776,679.168C538.496,703.488 521.184,712.992 494.08,712.992C458.112,712.992 435.2,693.248 435.2,662.56L435.2,523.008L464.48,523.008L464.48,651.008C464.48,673.184 479.296,687.264 502.592,687.264C533.28,687.264 552.992,662.592 552.992,624.928L552.992,523.008L582.272,523.008L582.176,707.744ZM559.552,349.664C559.552,286.336 610.976,234.944 674.272,234.944C737.568,234.944 788.96,286.368 788.96,349.664C788.96,412.589 737.181,464.368 674.256,464.368C611.331,464.368 559.552,412.589 559.552,349.664ZM797.088,684.832L797.088,707.008C787.584,709.536 783.008,710.176 776.992,710.176C762.494,710.143 749.841,699.999 746.656,685.856C730.37,703.145 707.656,712.979 683.904,713.024C646.496,713.024 623.232,693.28 623.232,659.776C623.232,637.28 634.144,620.704 655.648,611.872C667.008,607.296 673.312,605.856 714.912,600.608C738.176,597.792 745.6,592.448 745.6,580.128L745.6,572.352C745.6,554.784 730.752,544.832 704.352,544.832C676.832,544.832 663.52,555.072 660.992,577.696L631.424,577.696C633.184,535.04 660.704,517.792 705.408,517.792C750.88,517.792 774.816,535.36 774.816,568.224L774.816,671.136C774.816,680.32 780.48,685.568 790.72,685.568C792.48,685.472 793.888,685.472 797.088,684.832Z" style="fill:rgb(44,45,114);fill-rule:nonzero;"/>
            </g>
        </g>
    </g>
</svg>
