<svg t="1769832858795" class="icon" viewBox="0 0 1024 1024" version="1.1" xmlns="http://www.w3.org/2000/svg" p-id="32666" width="200" height="200"><path d="M64 456.32V239.04A112 112 0 0 1 176.896 128h670.208A112 112 0 0 1 960 239.04V896H588.096a657.152 657.152 0 0 1-29.376-95.04 132.416 132.416 0 0 0-1.408-23.744 55.616 55.616 0 0 0-10.176-12.8 113.152 113.152 0 0 1-17.856-49.6c-0.704-15.488-6.4-29.632-7.36-44.8-0.32-7.424 0.512-15.168 0-22.4a72.512 72.512 0 0 0-2.304-17.024l1.92-4.8a77.952 77.952 0 0 1 22.464-0.96c8.896 0 17.344 0.512 26.24 1.024a252.224 252.224 0 0 0 52.352-2.048A134.4 134.4 0 0 0 689.28 595.2a167.872 167.872 0 0 0 52.672-67.648 118.208 118.208 0 0 1 18.752-46.976 234.176 234.176 0 0 1 57.6-19.2 41.088 41.088 0 0 1 27.84-4.672c7.68 1.536 21.504 10.304 24.704-1.92a21.76 21.76 0 0 1-4.928-6.4c14.336-1.408 0.384-33.92-5.44-40.448a75.136 75.136 0 0 0-38.4-18.624 119.296 119.296 0 0 0-52.352-7.04 85.248 85.248 0 0 1-45.824-11.2 70.912 70.912 0 0 0-65.984 21.504 46.272 46.272 0 0 1-11.52 17.216 55.872 55.872 0 0 0-1.6 19.2c-2.304 7.424-5.76 33.216-9.472 42.368a43.904 43.904 0 0 1-26.752 34.432 101.888 101.888 0 0 1-48.832-2.56c-9.088-3.264-24.512-8.448-32-11.52A68.48 68.48 0 0 1 486.4 461.44c-3.84-6.4-40.96-82.304-46.4-95.36a104 104 0 0 0-24-35.968 46.528 46.528 0 0 0-43.2-20.16 56.32 56.32 0 0 0-29.376 10.496 141.76 141.76 0 0 0-16.832 29.76c-4.032 6.4-11.008 24.128-17.472 38.912a62.464 62.464 0 0 1-11.392 21.888 16.704 16.704 0 0 1-24.96-1.408 349.504 349.504 0 0 1-23.936-38.4c-24-40.96-33.408-59.392-60.928-59.584-35.008 0-37.632 19.2-53.056 47.36A196.352 196.352 0 0 1 64 456.32z m0 251.52V896h173.632s14.016-53.184 17.152-64a164.672 164.672 0 0 0 7.616-23.424 91.136 91.136 0 0 0-0.896-23.104 77.376 77.376 0 0 1 20.992-40.768c6.4-14.272 10.496-30.464 15.936-44.8a74.048 74.048 0 0 1 27.648-40.768 285.568 285.568 0 0 0-36.736-3.584 681.856 681.856 0 0 1-69.824-12.8 472.064 472.064 0 0 1-45.44-15.552 113.728 113.728 0 0 0-37.12-23.68 26.368 26.368 0 0 0-19.584 11.2 164.992 164.992 0 0 0-7.872 23.744 149.376 149.376 0 0 1-13.12 23.616A320 320 0 0 0 64 707.84z m482.816 159.424c-3.328-6.912-7.552-20.288-10.304-26.368a167.168 167.168 0 0 0-14.72-24.64 38.4 38.4 0 0 1-13.504-23.616 418.432 418.432 0 0 0-30.272-90.176A138.304 138.304 0 0 0 448 665.6a119.104 119.104 0 0 0-35.008-23.744 109.312 109.312 0 0 0-62.848 68.032 395.84 395.84 0 0 0-26.24 43.584 142.528 142.528 0 0 1-17.472 43.392 119.616 119.616 0 0 0-25.216 43.2c-1.28 3.264-11.264 55.936-11.264 55.936h288l-0.512-1.216a324.224 324.224 0 0 0-10.624-27.52z" fill="#E44F31" p-id="32667"></path></svg>
