<svg t="1769832571957" class="icon" viewBox="0 0 1024 1024" version="1.1" xmlns="http://www.w3.org/2000/svg" p-id="23897" width="200" height="200"><path d="M721.92 49.493333l-85.333333-7.68c-164.693333 102.4-200.533333 193.706667-318.72 334.08-48.213333-81.92 69.973333-222.72-62.293334-287.573333-49.92-17.066667-118.186667 25.173333-178.773333 38.826667l-23.04 46.506666c19.2 20.906667 33.28 26.026667 69.973333 31.146667 23.04 115.626667-50.773333 447.573333 209.92 372.906667 51.2 90.026667 39.253333 325.12 0 404.053333h46.506667l69.973333-365.226667 54.186667-7.68 7.68 15.786667-31.146667 163.413333 108.8 116.48c-16.64 31.573333-18.346667 40.533333-54.186666 54.186667l-7.68 23.466667c90.453333-1.28 82.346667-10.24 147.626666 0h7.68c11.52-55.04-15.36-62.293333-31.146666-108.8 49.066667-87.893333 75.093333-201.813333 108.8-318.72l15.786666-7.68c69.12 76.8 111.786667 293.546667 62.293334 411.733333v23.466667h54.186666c-20.053333-173.226667-17.493333-348.16 7.68-520.533334h8.106667c39.68 46.08 17.493333 121.173333 0 171.093334v7.253333l15.786667 7.68c111.36-162.56-98.986667-500.906667-202.666667-598.186667z m-85.333333 800.426667l-23.466667 15.786667c-33.28-18.773333-48.64-30.72-62.293333-69.973334-6.4-41.386667 63.573333-142.933333 85.333333-202.24 60.586667 53.76 20.48 199.253333 0 256.426667h0.426667z" fill="#0095DC" p-id="23898"></path></svg>
