<?xml version="1.0" encoding="UTF-8" standalone="no"?>
<!DOCTYPE svg PUBLIC "-//W3C//DTD SVG 1.1//EN" "http://www.w3.org/Graphics/SVG/1.1/DTD/svg11.dtd">
<svg width="100%" height="100%" viewBox="0 0 198 198" version="1.1" xmlns="http://www.w3.org/2000/svg" xmlns:xlink="http://www.w3.org/1999/xlink" xml:space="preserve" xmlns:serif="http://www.serif.com/" style="fill-rule:evenodd;clip-rule:evenodd;stroke-linejoin:round;stroke-miterlimit:2;">
    <g transform="matrix(1,0,0,1,0,-0.139757)">
        <g transform="matrix(1,0,0,1,-1.19722,-1.267959)">
            <g id="python">
                <g transform="matrix(0.231879,0,0,0.231879,-18.589794,-18.379297)">
                    <path d="M420.693,85.333C353.28,85.333 298.667,139.947 298.667,207.36L298.667,279.04L481.707,279.04C498.347,279.04 512,303.36 512,320L207.36,320C139.947,320 85.333,374.613 85.333,442.027L85.333,603.349C85.333,670.763 139.947,725.376 207.36,725.376L257.707,725.376L257.707,611.029C257.707,543.616 311.893,489.003 379.307,489.003L603.307,489.003C670.72,489.003 725.333,434.773 725.333,367.36L725.333,207.36C725.333,139.947 670.72,85.333 603.307,85.333L420.693,85.333ZM389.973,154.027C407.04,154.027 420.693,159.147 420.693,184.32C420.693,209.493 407.04,222.336 389.973,222.336C373.333,222.336 359.68,209.536 359.68,184.363C359.68,159.189 373.333,154.027 389.973,154.027Z" style="fill:rgb(60,120,170);fill-rule:nonzero;"/>
                </g>
                <g transform="matrix(0.231879,0,0,0.231879,-18.589794,-18.379297)">
                    <path d="M766.251,298.667L766.251,413.013C766.251,413.141 766.251,413.269 766.251,413.397C766.251,480.105 711.359,534.997 644.651,534.997C644.651,534.997 420.693,534.997 420.693,534.997C420.551,534.997 420.409,534.997 420.267,534.997C353.559,534.997 298.667,589.889 298.667,656.597C298.667,656.597 298.667,816.597 298.667,816.597C298.667,883.539 353.751,938.624 420.693,938.624L603.307,938.624C670.232,938.624 725.31,883.566 725.333,816.64L725.333,744.96L542.251,744.96C525.611,744.96 512,720.64 512,704L816.64,704C883.582,704 938.667,648.915 938.667,581.973L938.667,420.693C938.667,353.751 883.582,298.667 816.64,298.667L766.251,298.667ZM354.987,491.221L354.816,491.392C355.328,491.307 355.883,491.349 356.437,491.221L354.987,491.221ZM634.027,801.664C650.667,801.664 664.32,814.464 664.32,839.637C664.32,856.256 650.645,869.931 634.027,869.931C616.96,869.931 603.307,864.811 603.307,839.637C603.307,814.464 616.96,801.664 634.027,801.664Z" style="fill:rgb(253,216,53);fill-rule:nonzero;"/>
                </g>
            </g>
        </g>
    </g>
</svg>
