<?xml version="1.0" encoding="UTF-8" standalone="no"?>
<!DOCTYPE svg PUBLIC "-//W3C//DTD SVG 1.1//EN" "http://www.w3.org/Graphics/SVG/1.1/DTD/svg11.dtd">
<svg width="100%" height="100%" viewBox="0 0 198 197" version="1.1" xmlns="http://www.w3.org/2000/svg" xmlns:xlink="http://www.w3.org/1999/xlink" xml:space="preserve" xmlns:serif="http://www.serif.com/" style="fill-rule:evenodd;clip-rule:evenodd;stroke-linejoin:round;stroke-miterlimit:2;">
    <g transform="matrix(1,0,0,1,-1.19722,-1.267959)">
        <g id="ruby" transform="matrix(0.274361,0,0,0.274361,-40.944652,-40.873913)">
            <path d="M759.296,153.907C850.432,169.677 876.288,231.987 874.394,297.267L874.803,296.294L833.843,833.894L300.544,870.4L301.056,870.4C256.768,868.557 158.106,864.461 153.6,726.528L203.059,636.416L287.744,834.304L302.848,869.53L387.174,594.739L386.253,594.944L386.765,594.074L664.832,682.906L622.899,519.68L593.152,402.432L858.214,385.382L839.731,370.022L649.421,214.886L759.398,153.6L759.296,153.907ZM153.6,724.89L153.6,725.76L153.6,724.89ZM307.712,303.821C414.771,197.632 552.909,134.861 605.901,188.416C658.893,241.818 602.778,371.866 495.565,477.952C388.454,584.09 252.058,650.291 199.117,596.89C146.074,543.488 200.499,410.061 307.661,303.872L307.763,303.821L307.712,303.821Z" style="fill:rgb(174,24,34);fill-rule:nonzero;"/>
        </g>
    </g>
</svg>
