<?xml version="1.0" encoding="UTF-8" standalone="no"?>
<!DOCTYPE svg PUBLIC "-//W3C//DTD SVG 1.1//EN" "http://www.w3.org/Graphics/SVG/1.1/DTD/svg11.dtd">
<svg width="100%" height="100%" viewBox="0 0 198 198" version="1.1" xmlns="http://www.w3.org/2000/svg" xmlns:xlink="http://www.w3.org/1999/xlink" xml:space="preserve" xmlns:serif="http://www.serif.com/" style="fill-rule:evenodd;clip-rule:evenodd;stroke-linejoin:round;stroke-miterlimit:2;">
    <g transform="matrix(1,0,0,1,-1.19722,-1.267959)">
        <g transform="matrix(0.195312,0,0,0.195312,0,0)">
            <path d="M1010.656,499.584L968.192,473.312C967.786,468.313 967.306,463.321 966.752,458.336L966.976,460.928L1003.456,426.912C1006.37,424.141 1008.021,420.291 1008.021,416.269C1008.021,410.237 1004.305,404.791 998.688,402.592L998.592,402.56L951.968,385.12C950.632,380.23 949.17,375.375 947.584,370.56L948.32,373.088L977.408,332.672C979.191,330.187 980.15,327.205 980.15,324.147C980.15,317.042 974.973,310.914 967.968,309.728L967.872,309.728L918.72,301.76C916.511,297.363 914.196,293.021 911.776,288.736L912.8,290.688L933.44,245.344C934.282,243.459 934.717,241.418 934.717,239.354C934.717,231.297 928.086,224.666 920.029,224.666C919.891,224.666 919.754,224.668 919.616,224.672L869.696,226.432C867.036,223.068 864.304,219.761 861.504,216.512L861.792,216.864L873.28,168.256C873.533,167.168 873.661,166.055 873.661,164.938C873.661,156.916 867.06,150.314 859.037,150.314C857.885,150.314 856.736,150.45 855.616,150.72L855.712,150.688L807.104,162.176C804.302,159.8 801.475,157.453 798.624,155.136L797.504,154.272L799.264,104.352C799.264,104.352 799.264,103.645 799.264,103.644C799.264,95.692 792.72,89.148 784.768,89.148C782.609,89.148 780.477,89.631 778.528,90.56L778.624,90.528L733.28,111.232C729.624,109.215 725.943,107.241 722.24,105.312L714.208,56.128C712.991,49.101 706.835,43.919 699.704,43.919C696.658,43.919 693.686,44.864 691.2,46.624L691.232,46.592L650.784,75.68C647.649,74.577 644.479,73.574 641.28,72.672L638.752,72.032L621.312,25.408C619.12,19.755 613.65,16.009 607.587,16.009C603.577,16.009 599.735,17.648 596.96,20.544L562.944,57.056C559.304,56.618 555.655,56.256 552,55.968L550.592,55.872L524.32,13.408C521.664,9.113 516.96,6.492 511.91,6.492C506.874,6.492 502.18,9.1 499.52,13.376L499.488,13.44L473.216,55.904C469.085,56.265 464.957,56.66 460.832,57.088L426.784,20.576C424.029,17.598 420.152,15.902 416.095,15.902C410.042,15.902 404.592,19.677 402.464,25.344L402.432,25.44L384.992,72.064C380.928,73.216 376.96,74.464 372.96,75.68L332.544,46.592C330.067,44.853 327.113,43.92 324.087,43.92C316.992,43.92 310.857,49.05 309.6,56.032L309.6,56.128L301.568,105.312C297.171,107.521 292.829,109.836 288.544,112.256L290.496,111.232L245.152,90.528C243.244,89.654 241.17,89.201 239.072,89.201C231.067,89.201 224.48,95.788 224.48,103.793C224.48,103.798 224.48,103.803 224.48,103.808L224.48,104.384L224.48,104.352L226.24,154.272C223.008,156.832 219.808,159.488 216.64,162.176L168.032,150.688C166.944,150.435 165.831,150.307 164.714,150.307C156.692,150.307 150.09,156.908 150.09,164.931C150.09,166.083 150.226,167.232 150.496,168.352L150.464,168.256L161.888,216.864C159.238,220.023 156.625,223.213 154.048,226.432L104.128,224.672L103.584,224.672C103.58,224.672 103.576,224.672 103.571,224.672C95.567,224.672 88.979,231.259 88.979,239.264C88.979,241.386 89.442,243.483 90.336,245.408L90.304,245.312L111.008,290.656C109.287,293.588 107.644,296.565 106.08,299.584L105.056,301.696L55.904,309.664C48.877,310.881 43.695,317.037 43.695,324.168C43.695,327.214 44.64,330.186 46.4,332.672L46.368,332.64L75.456,373.056C74.176,377.056 72.992,381.024 71.776,385.088L25.152,402.528C19.499,404.72 15.753,410.19 15.753,416.253C15.753,420.263 17.392,424.105 20.288,426.88L56.768,460.896C56.329,464.536 55.966,468.185 55.68,471.84L55.584,473.248L13.12,499.52C8.785,502.151 6.13,506.868 6.13,511.94C6.13,516.984 8.757,521.68 13.056,524.32L13.12,524.352L55.584,550.624C55.936,554.752 56.352,558.912 56.768,563.008L20.288,597.056C17.31,599.811 15.614,603.688 15.614,607.745C15.614,613.798 19.389,619.248 25.056,621.376L25.152,621.408L71.776,638.848C72.928,642.912 74.176,646.912 75.456,650.88L46.368,691.296C44.541,693.787 43.556,696.797 43.556,699.886C43.556,707.013 48.799,713.139 55.84,714.24L55.936,714.24L105.088,722.208C107.008,725.92 108.96,729.6 111.008,733.248L90.304,778.592C89.43,780.5 88.977,782.574 88.977,784.672C88.977,792.677 95.564,799.264 103.569,799.264C103.574,799.264 103.579,799.264 103.584,799.264L104.16,799.264L154.016,797.504C156.608,800.736 159.232,803.936 161.92,807.104L150.496,855.744C150.239,856.837 150.11,857.957 150.11,859.08C150.11,867.085 156.697,873.672 164.702,873.672C165.878,873.672 167.05,873.529 168.192,873.248L168.096,873.28L216.704,861.856C219.872,864.544 223.072,867.136 226.304,869.696L224.544,919.616C224.544,919.616 224.544,920.259 224.544,920.26C224.544,928.212 231.088,934.756 239.04,934.756C241.199,934.756 243.331,934.273 245.28,933.344L245.184,933.376L290.528,912.736C294.208,914.784 297.856,916.736 301.568,918.656L309.6,967.808C310.813,974.838 316.971,980.025 324.106,980.025C327.137,980.025 330.096,979.089 332.576,977.344L332.544,977.376L372.96,948.288C376.96,949.568 380.928,950.816 384.992,951.968L402.432,998.592C404.546,1004.306 410.025,1008.122 416.118,1008.122C420.16,1008.122 424.026,1006.443 426.784,1003.488L460.832,967.008C464.928,967.488 469.056,967.872 473.216,968.256L499.488,1010.72C502.154,1015.008 506.859,1017.624 511.908,1017.624C516.931,1017.624 521.614,1015.036 524.288,1010.784L524.32,1010.72L550.592,968.256C554.72,967.872 558.88,967.488 562.976,967.008L596.992,1003.488C599.763,1006.402 603.613,1008.053 607.635,1008.053C613.667,1008.053 619.113,1004.337 621.312,998.72L621.344,998.624L638.784,952C642.848,950.848 646.848,949.6 650.816,948.32L691.232,977.408C693.723,979.235 696.733,980.22 699.822,980.22C706.949,980.22 713.075,974.977 714.176,967.936L714.176,967.84L722.208,918.688C725.92,916.768 729.6,914.752 733.248,912.768L778.592,933.408C780.483,934.261 782.534,934.703 784.608,934.703C792.624,934.703 799.223,928.112 799.232,920.096L799.232,919.616L799.232,919.648L797.472,869.728C800.704,867.168 803.904,864.576 807.04,861.888L855.648,873.312C856.744,873.569 857.866,873.699 858.992,873.699C867.014,873.699 873.616,867.098 873.616,859.075C873.616,857.932 873.482,856.792 873.216,855.68L873.248,855.776L861.824,807.136C864.48,803.968 867.104,800.768 869.664,797.536L919.584,799.296C919.584,799.296 920.291,799.296 920.292,799.296C928.244,799.296 934.788,792.752 934.788,784.8C934.788,782.641 934.305,780.509 933.376,778.56L933.408,778.656L912.768,733.312C914.784,729.632 916.768,725.984 918.688,722.272L967.84,714.304C974.867,713.087 980.049,706.931 980.049,699.8C980.049,696.754 979.104,693.782 977.344,691.296L977.376,691.328L948.288,650.912L951.968,638.88L998.592,621.44C1004.282,619.302 1008.072,613.829 1008.072,607.751C1008.072,603.713 1006.4,599.851 1003.456,597.088L966.976,563.04C967.392,558.944 967.84,554.816 968.16,550.656L1010.624,524.384C1014.959,521.753 1017.614,517.036 1017.614,511.964C1017.614,506.92 1014.987,502.224 1010.688,499.584L1010.624,499.552L1010.656,499.584ZM726.528,851.712C712.755,848.713 702.847,836.416 702.847,822.32C702.847,805.818 716.426,792.239 732.928,792.239C735.08,792.239 737.225,792.47 739.328,792.928L739.136,792.896C752.903,795.901 762.804,808.196 762.804,822.288C762.804,838.792 749.224,852.372 732.72,852.372C730.563,852.372 728.412,852.14 726.304,851.68L726.496,851.712L726.528,851.712ZM712.096,754.176C697.46,751.028 682.818,760.448 679.616,775.072L679.584,775.264L664.512,845.568C616.6,867.303 564.579,878.511 511.968,878.432L511.424,878.432C455.104,878.432 401.728,865.792 353.984,843.168L356.224,844.128L341.152,773.824C338.478,761.232 327.261,752.147 314.389,752.147C312.391,752.147 310.398,752.366 308.448,752.8L308.64,752.768L246.56,766.08C235.36,754.56 224.864,742.208 215.168,729.216L214.464,728.224L516.544,728.224C519.968,728.224 522.272,727.616 522.272,724.512L522.272,617.632C522.272,614.528 520,613.92 516.544,613.92L428.192,613.92L428.192,546.176L523.776,546.176C532.48,546.176 570.4,548.64 582.528,597.12C586.336,612 594.656,660.512 600.352,676.064C606.016,693.472 629.152,728.256 653.824,728.256L804.352,728.256C806.253,728.229 808.148,728.037 810.016,727.68L809.824,727.712C798.848,742.56 787.616,755.648 775.552,767.904L775.616,767.84L712.096,754.176ZM294.272,850.272C292.169,850.73 290.024,850.961 287.872,850.961C271.37,850.961 257.791,837.382 257.791,820.88C257.791,806.784 267.699,794.487 281.472,791.488L281.664,791.456C283.767,790.998 285.912,790.767 288.064,790.767C304.566,790.767 318.145,804.346 318.145,820.848C318.145,834.944 308.237,847.241 294.464,850.24L294.272,850.272ZM179.68,385.536C181.238,389.234 182.041,393.206 182.041,397.218C182.041,413.72 168.463,427.298 151.961,427.298C140.376,427.298 129.778,420.605 124.8,410.144L124.736,409.952C123.243,406.322 122.475,402.434 122.475,398.509C122.475,382.008 136.053,368.429 152.555,368.429C164.057,368.429 174.594,375.027 179.616,385.376L179.68,385.568L179.68,385.536ZM144.48,469.024L209.152,440.256C219.034,435.851 225.43,425.998 225.43,415.179C225.43,411.291 224.604,407.448 223.008,403.904L223.072,404.064L209.76,373.952L262.144,373.952L262.144,610.08L156.448,610.08C146.977,577.191 142.225,543.122 142.336,508.896C142.336,494.816 143.136,480.96 144.64,467.296L144.48,468.96L144.48,469.024ZM428.288,446.112L428.288,376.512L553.056,376.512C559.488,376.512 598.528,383.968 598.528,413.152C598.528,437.376 568.576,446.08 543.968,446.08L428.288,446.08L428.288,446.112ZM881.664,508.768C881.664,517.984 881.312,527.168 880.64,536.192L842.72,536.192C838.912,536.192 837.376,538.656 837.376,542.432L837.376,559.84C837.376,600.832 814.24,609.76 793.984,612.032C774.688,614.208 753.312,603.968 750.688,592.16C739.296,528.16 720.352,514.464 690.4,490.88C727.552,467.296 766.208,432.48 766.208,385.888C766.208,335.584 731.68,303.872 708.192,288.32C675.2,266.56 638.688,262.208 628.832,262.208L236.608,262.208C290.242,202.168 362.075,161.294 441.088,145.856L443.424,145.472L489.664,193.984C494.802,199.44 501.972,202.537 509.466,202.537C516.524,202.537 523.313,199.789 528.384,194.88L580.096,145.376C686.002,165.392 778.104,230.581 832.192,323.808L833.152,325.6L797.728,405.6C791.699,419.29 797.879,435.517 811.488,441.728L811.648,441.792L879.84,472.096C881.024,484.224 881.632,496.416 881.632,508.832L881.664,508.768ZM489.696,104.192C495.284,98.855 502.721,95.874 510.448,95.874C526.931,95.874 540.494,109.437 540.494,125.92C540.494,134.125 537.133,141.981 531.2,147.648C525.732,152.39 518.731,155.002 511.493,155.002C494.992,155.002 481.413,141.424 481.413,124.922C481.413,117.193 484.393,109.753 489.728,104.16L489.696,104.192ZM841.12,386.976C845.891,376.14 856.664,369.112 868.504,369.112C872.708,369.112 876.865,369.998 880.704,371.712C891.588,376.513 898.644,387.338 898.644,399.233C898.644,415.735 885.065,429.313 868.564,429.313C852.062,429.313 838.484,415.735 838.484,399.233C838.484,394.962 839.393,390.74 841.152,386.848L841.088,387.04L841.12,386.976Z" style="fill-rule:nonzero;"/>
        </g>
    </g>
</svg>
