<?xml version="1.0" encoding="UTF-8"?>
<!-- Generated by Pixelmator Pro 3.7 -->
<svg width="200" height="200" viewBox="0 0 200 200" xmlns="http://www.w3.org/2000/svg">
    <path id="path1" fill="#027aff" stroke="none" d="M 116.666664 16.666672 L 50 16.666672 C 40.795254 16.666672 33.333336 24.128586 33.333336 33.333328 L 33.333336 166.666656 C 33.333336 175.871414 40.795254 183.333344 50 183.333344 L 150 183.333344 C 159.204742 183.333344 166.666656 175.871414 166.666656 166.666656 L 166.666656 66.666672 L 116.666664 16.666672 Z M 133.333344 108.333336 L 66.666672 108.333336 L 66.666672 91.666672 L 133.333344 91.666672 L 133.333344 108.333336 Z M 108.333336 75 L 108.333336 29.166672 L 154.166656 75 L 108.333336 75 Z M 91.666672 166.666656 L 91.666672 108.333336 L 108.333336 108.333336 L 108.333336 166.666656 L 91.666672 166.666656 Z"/>
</svg>
