<?xml version="1.0" encoding="UTF-8" standalone="no"?>
<!DOCTYPE svg PUBLIC "-//W3C//DTD SVG 1.1//EN" "http://www.w3.org/Graphics/SVG/1.1/DTD/svg11.dtd">
<svg width="100%" height="100%" viewBox="0 0 198 198" version="1.1" xmlns="http://www.w3.org/2000/svg" xmlns:xlink="http://www.w3.org/1999/xlink" xml:space="preserve" xmlns:serif="http://www.serif.com/" style="fill-rule:evenodd;clip-rule:evenodd;stroke-linejoin:round;stroke-miterlimit:2;">
    <g transform="matrix(1,0,0,1,-0.000043,-0.000007)">
        <g transform="matrix(1,0,0,1,-1.19722,-1.267959)">
            <g id="typescript" transform="matrix(0.23696,0,0,0.23696,-21.126266,-21.055563)">
                <path d="M94.208,94.208L94.208,929.792L929.792,929.792L929.792,94.208L94.208,94.208ZM729.129,500.06L729.129,500.072C737.141,500.097 746.248,500.509 753.097,501.252C780.988,504.269 802.71,516.303 821.189,538.968C830.39,550.259 833.538,555.198 832.868,557.312C832.436,558.676 826.122,563.198 806.048,576.522C786.328,589.615 779.977,593.537 778.502,593.537C777.005,593.537 773.888,590.33 769.397,584.172C760.744,572.316 751.911,566.905 738.257,565.101C723.573,563.155 710.4,567.783 703.949,577.159C698.434,585.171 697.6,598.061 701.983,607.429C707.062,618.277 716.253,624.275 751.477,639.719C792.101,657.533 812.687,669.725 827.681,684.857C843.827,701.151 852.007,719.964 854.52,746.576C855.747,759.548 854.247,774.92 850.536,787.419C841.433,818.059 816.867,840.495 780.863,851.055C770.91,853.973 761.649,855.716 752.488,856.388C738.503,857.418 718.486,856.85 706.437,855.097C675.955,850.655 641.544,832.918 624.386,812.806C615.963,802.933 605.209,786.684 605.209,783.827C605.209,782.447 605.893,781.662 608.6,779.942C616.632,774.838 662.655,748.53 663.548,748.53C664.089,748.53 666.493,751.362 668.889,754.825C674.318,762.665 687.669,776.139 694.456,780.634C700,784.306 707.09,787.253 715.508,789.381C720.329,790.583 722.881,790.798 733.399,790.798C744.147,790.794 746.351,790.614 751.159,789.322C763.877,785.9 773.804,778.815 778.011,770.165C779.854,766.427 779.891,765.96 779.891,756.894L779.891,747.493L777.63,743.008C772.155,732.142 760.359,724.685 723.061,708.53C705.929,701.108 684.947,690.645 676.755,685.439C658.059,673.559 645.102,659.976 636.598,643.351C628.14,626.817 626.881,620.663 626.86,595.802C626.84,576.34 626.807,576.58 630.835,564.158C634.491,552.886 641.974,540.295 650.236,531.513C666.722,513.989 690.813,502.725 716.603,500.484C719.901,500.171 724.32,500.05 729.127,500.064L729.129,500.06ZM507.208,503.904L507.216,503.904C556.886,503.929 585.359,504.101 585.816,504.388C586.676,504.92 586.785,509.243 586.785,536.832L586.785,568.66L487.657,569.02L487.657,709.745C487.657,787.145 487.5,850.93 487.285,851.493C486.935,852.441 483.121,852.513 450.871,852.513L414.853,852.513L414.48,851.059C414.241,850.26 414.065,786.471 414.061,709.308L414.048,569.012L364.487,568.836L314.921,568.656L314.921,537.205C314.921,512.26 315.093,505.58 315.759,504.916C316.441,504.214 341.735,504.033 450.726,503.925C471.738,503.904 490.652,503.894 507.21,503.904L507.208,503.904Z" style="fill:rgb(2,136,209);fill-rule:nonzero;"/>
            </g>
        </g>
    </g>
</svg>
